<svg xmlns="http://www.w3.org/2000/svg" viewBox="0 0 84 84" class="svgo" fill="#7d7d7e"><path fill="#7d7d7e" d="M1.6 73.8V10.3h2.8v63.5H1.6zm4.2-.1V10.2h1.4v63.5H5.8zm4.3 0V10.2h1.4v63.5h-1.4zm7.1 0V10.2h1.4v63.5h-1.4zm5.7 0V10.2h2.8v63.5h-2.8zm7.1 0V10.2h1.4v63.5H30zm2.8 0V10.2h1.4v63.5h-1.4zm2.8 0V10.2H37v63.5h-1.4zm5.7 0V10.2h2.8v63.5h-2.8zm7.1 0V10.2h2.8v63.5h-2.8zm5.6 0V10.2h2.8v63.5H54zm5.7 0V10.2h2.8v63.5h-2.8zm4.3 0V10.2h2.8v63.5H64zm7.1 0V10.2h4.2v63.5h-4.2zm5.6 0V10.2h1.4v63.5h-1.4zm2.9.1V10.3h2.8v63.5h-2.8z"></path></svg>
