<svg viewBox="0 0 128 128" fill="#7d7d7e" xmlns="http://www.w3.org/2000/svg" class="banco-inter-pix-icon"><g clip-path="url(#clip0)"><path d="M31.0161 29.5743C36.1048 29.5743 40.9936 31.5565 44.6415 35.0961L61.5232 51.4698C63.5387 53.427 66.7452 53.427 68.769 51.4698L85.4426 35.3043C89.0988 31.7647 93.9876 29.7825 99.0679 29.7825H101.908L77.8553 5.73829C70.2098 -1.90723 57.8004 -1.90723 50.1549 5.73829L26.3105 29.5743H31.0161Z" fill="#7d7d7e"></path><path d="M31.0161 98.4257C36.1048 98.4257 40.9936 96.4435 44.6415 92.9039L61.5232 76.5301C63.5387 74.573 66.7452 74.573 68.769 76.5301L85.4426 92.6957C89.0988 96.2353 93.9876 98.2174 99.0679 98.2174H101.908L77.8553 122.262C70.2098 129.907 57.8004 129.907 50.1549 122.262L26.3105 98.4173H31.0161V98.4257Z" fill="#7d7d7e"></path><path d="M122.261 50.154L109.394 37.2865H99.0584C95.9019 37.2865 92.912 38.4941 90.6466 40.6928L70.8582 59.8899C69.2592 61.4473 67.202 62.2219 65.1449 62.2219C63.0878 62.2219 61.0307 61.4473 59.4316 59.8899L39.4266 40.4846C37.1613 38.2859 34.1714 37.0783 31.0149 37.0783H18.8137L5.73805 50.154C-1.90747 57.7995 -1.90747 70.2089 5.73805 77.8544L19.405 91.5214H31.0149C34.1714 91.5214 37.1613 90.3138 39.4266 88.115L59.4316 68.7097C62.638 65.6032 67.6601 65.6032 70.8582 68.7097L90.655 87.9068C92.9203 90.1055 95.9102 91.3132 99.0667 91.3132H108.811L122.27 77.8544C129.915 70.2005 129.915 57.7995 122.261 50.154Z" fill="#7d7d7e"></path></g><defs><clipPath id="clip0"><rect width="128" height="128" fill="#7d7d7e"></rect></clipPath></defs></svg>
